<?xml version="1.0" encoding="utf-8"?>

<!DOCTYPE svg PUBLIC "-//W3C//DTD SVG 1.1//EN" "http://www.w3.org/Graphics/SVG/1.1/DTD/svg11.dtd">
<svg version="1.1" id="Layer_1" xmlns="http://www.w3.org/2000/svg" xmlns:xlink="http://www.w3.org/1999/xlink" x="0px" y="0px"
	 viewBox="0 0 2616.05 1665.649" enable-background="new 0 0 2616.05 1665.649" xml:space="preserve">
<g>
	<g>
		<g>
			<path d="M2171.682,1542.893c391.536-391.533,391.536-1028.607,0-1420.142c-56.957-56.957,29.192-143.22,86.207-86.204
				c440.201,440.213,440.16,1152.39,0,1592.55C2200.944,1686.042,2114.646,1599.929,2171.682,1542.893z"/>
		</g>
		<g>
			<path d="M1983.389,1354.6c287.709-287.708,287.709-755.847,0-1043.556c-56.947-56.947,29.172-143.229,86.207-86.204
				c336.265,336.265,336.314,879.647,0,1215.967C2012.637,1497.752,1926.361,1411.628,1983.389,1354.6z"/>
		</g>
		<g>
			<path d="M1795.098,1166.309c183.884-183.887,183.884-483.088,0-666.971c-56.957-56.957,29.189-143.22,86.204-86.204
				c232.121,232.124,232.148,607.223,0,839.379C1824.353,1309.463,1738.068,1223.333,1795.098,1166.309z"/>
		</g>
		<g>
			<path d="M1606.805,978.013c80.058-80.058,80.058-210.324,0-290.382c-56.957-56.957,29.189-143.22,86.204-86.204
				c127.592,127.592,127.592,335.198,0,462.79C1636.052,1121.174,1549.789,1035.029,1606.805,978.013z"/>
		</g>
	</g>
	<g>
		<g>
			<path d="M358.163,1629.097c-440.141-440.129-440.227-1152.324,0-1592.55c56.957-56.957,143.22,29.189,86.204,86.204
				c-391.535,391.535-391.535,1028.609,0,1420.142C501.314,1599.839,415.195,1686.129,358.163,1629.097z"/>
		</g>
		<g>
			<path d="M546.456,1440.807c-336.268-336.274-336.317-879.65,0-1215.967c56.957-56.957,143.22,29.189,86.204,86.204
				c-287.708,287.709-287.708,755.848,0,1043.556C689.612,1411.551,603.482,1497.825,546.456,1440.807z"/>
		</g>
		<g>
			<path d="M734.749,1252.514c-232.118-232.124-232.154-607.226,0-839.379c56.951-56.958,143.219,29.189,86.204,86.204
				c-184.476,184.473-184.502,482.466,0,666.968C877.909,1223.262,791.765,1309.53,734.749,1252.514z"/>
		</g>
		<g>
			<path d="M923.042,1064.218c-214.136-214.136-13.838-562.833,86.204-462.79c23.805,23.805,23.805,62.399,0,86.204
				c-80.058,80.058-80.058,210.324,0,290.382C1066.194,1034.96,980.072,1121.247,923.042,1064.218z"/>
		</g>
	</g>
	<circle cx="1310.69" cy="832.812" r="132.267"/>
</g>
</svg>
